<svg aria-hidden="true" style="position: absolute; width: 0; height: 0; overflow: hidden;" version="1.1" xmlns="http://www.w3.org/2000/svg" xmlns:xlink="http://www.w3.org/1999/xlink">
<defs>
<symbol id="icon-female" viewBox="0 0 32 32">
<path d="M16 29.067c-0.533 0-1.067-0.4-1.067-1.067v-2.933h-2.933c-0.533 0-1.067-0.4-1.067-1.067s0.4-1.067 1.067-1.067h2.933v-4.667c-3.733-0.533-6.667-3.733-6.667-7.6 0-4.267 3.467-7.733 7.733-7.733s7.733 3.467 7.733 7.733c0 3.867-2.933 7.067-6.667 7.6v4.667h2.933c0.533 0 1.067 0.4 1.067 1.067s-0.4 1.067-1.067 1.067h-2.933v2.933c0 0.533-0.533 1.067-1.067 1.067zM16 5.067c-3.067 0-5.6 2.533-5.6 5.6s2.533 5.6 5.6 5.6c3.067 0 5.6-2.533 5.6-5.6s-2.533-5.6-5.6-5.6z"></path>
</symbol>
<symbol id="icon-male" viewBox="0 0 32 32">
<path d="M16 29.067c-4.267 0-7.733-3.467-7.733-7.733 0-3.867 2.933-7.067 6.667-7.6v-7.333l-3.6 3.6c-0.4 0.4-1.067 0.4-1.467 0-0.133-0.133-0.267-0.4-0.267-0.667s0.133-0.533 0.267-0.667l5.333-5.333c0.133-0.133 0.4-0.267 0.667-0.267 0 0 0 0 0 0s0 0 0 0c0.133 0 0.133 0 0.267 0s0.4 0.133 0.533 0.267c0 0 0 0 0 0s0 0 0 0l5.333 5.333c0.4 0.4 0.4 1.067 0 1.467s-1.067 0.4-1.467 0l-3.6-3.6v7.333c3.733 0.533 6.667 3.733 6.667 7.6 0.133 4.133-3.333 7.6-7.6 7.6zM16 15.733c-3.067 0-5.6 2.533-5.6 5.6s2.533 5.6 5.6 5.6c3.067 0 5.6-2.533 5.6-5.6s-2.533-5.6-5.6-5.6z"></path>
</symbol>
<symbol id="icon-cat-footprint" viewBox="0 0 32 32">
<path d="M12.5 5c-1.070 0-2.002 0.608-2.594 1.438s-0.906 1.902-0.906 3.062c0 1.16 0.314 2.233 0.906 3.063s1.524 1.437 2.594 1.437 2.002-0.608 2.594-1.438c0.592-0.83 0.906-1.902 0.906-3.062s-0.314-2.233-0.906-3.063c-0.592-0.83-1.524-1.437-2.594-1.437zM16 9.5c0 1.16 0.314 2.233 0.906 3.063s1.525 1.437 2.594 1.437c1.070 0 2.002-0.608 2.594-1.438s0.906-1.902 0.906-3.062-0.314-2.233-0.906-3.063c-0.592-0.83-1.524-1.437-2.594-1.437s-2.002 0.608-2.594 1.438c-0.592 0.83-0.906 1.902-0.906 3.062zM12.5 7c0.312 0 0.656 0.156 0.97 0.594 0.31 0.437 0.53 1.133 0.53 1.906s-0.22 1.47-0.53 1.906c-0.314 0.438-0.658 0.594-0.97 0.594s-0.656-0.156-0.97-0.594c-0.31-0.437-0.53-1.133-0.53-1.906s0.22-1.47 0.53-1.906c0.314-0.438 0.658-0.594 0.97-0.594zM19.5 7c0.312 0 0.656 0.156 0.97 0.594 0.31 0.437 0.53 1.133 0.53 1.906s-0.22 1.47-0.53 1.906c-0.314 0.438-0.658 0.594-0.97 0.594s-0.656-0.156-0.97-0.594c-0.31-0.437-0.53-1.133-0.53-1.906s0.22-1.47 0.53-1.906c0.314-0.438 0.658-0.594 0.97-0.594zM7.5 12c-1.070 0-2.002 0.608-2.594 1.438s-0.906 1.902-0.906 3.062 0.314 2.233 0.906 3.063c0.592 0.83 1.524 1.437 2.594 1.437s2.002-0.608 2.594-1.438c0.592-0.83 0.906-1.902 0.906-3.062s-0.314-2.233-0.906-3.063c-0.592-0.83-1.524-1.437-2.594-1.437zM24.5 12c-1.070 0-2.002 0.608-2.594 1.438s-0.906 1.902-0.906 3.062 0.314 2.233 0.906 3.063c0.592 0.83 1.524 1.437 2.594 1.437s2.002-0.608 2.594-1.438c0.592-0.83 0.906-1.902 0.906-3.062s-0.314-2.233-0.906-3.063c-0.592-0.83-1.524-1.437-2.594-1.437zM7.5 14c0.312 0 0.656 0.156 0.97 0.594 0.31 0.437 0.53 1.133 0.53 1.906s-0.22 1.47-0.53 1.906c-0.314 0.438-0.658 0.594-0.97 0.594s-0.656-0.156-0.97-0.594c-0.31-0.436-0.53-1.133-0.53-1.906s0.22-1.47 0.53-1.906c0.314-0.438 0.658-0.594 0.97-0.594zM24.5 14c0.312 0 0.656 0.156 0.97 0.594 0.31 0.437 0.53 1.133 0.53 1.906s-0.22 1.47-0.53 1.906c-0.314 0.438-0.658 0.594-0.97 0.594s-0.656-0.156-0.97-0.594c-0.31-0.437-0.53-1.133-0.53-1.906s0.22-1.47 0.53-1.906c0.314-0.438 0.658-0.594 0.97-0.594zM16 16c-1.333 0-2.263 0.865-2.72 1.625-0.454 0.76-0.734 1.392-1 1.656-0.153 0.157-1.118 0.52-2.124 1.033-0.503 0.257-1.010 0.6-1.437 1.125-0.43 0.525-0.72 1.25-0.72 2.063 0 1.92 1.58 3.5 3.5 3.5 0.866 0 1.77-0.28 2.655-0.53 0.889-0.256 1.846-0.472 1.846-0.472s0.957 0.216 1.844 0.47c0.886 0.25 1.79 0.53 2.656 0.53 1.92 0 3.5-1.58 3.5-3.5 0-0.794-0.293-1.52-0.72-2.030-0.425-0.513-0.937-0.83-1.436-1.095-1-0.53-1.983-0.95-2.125-1.094-0.24-0.237-0.51-0.89-0.97-1.654-0.459-0.767-1.409-1.627-2.749-1.627zM16 18c0.66 0 0.733 0.16 1.030 0.656 0.3 0.495 0.524 1.336 1.25 2.063 0.825 0.82 1.867 1 2.626 1.404 0.38 0.202 0.67 0.417 0.844 0.625 0.173 0.207 0.25 0.396 0.25 0.75 0 0.84-0.66 1.5-1.5 1.5-0.29 0-1.224-0.22-2.094-0.47-0.87-0.247-1.59-0.53-2.406-0.53s-1.536 0.283-2.406 0.53c-0.87 0.25-1.804 0.47-2.094 0.47-0.84 0-1.5-0.66-1.5-1.5 0-0.403 0.084-0.61 0.25-0.814 0.166-0.203 0.472-0.404 0.844-0.593 0.744-0.38 1.78-0.53 2.625-1.375 0.733-0.737 0.953-1.605 1.25-2.095 0.292-0.49 0.362-0.625 1.030-0.625l0.001 0.004z"></path>
</symbol>
<symbol id="icon-plus" viewBox="0 0 32 32">
<path d="M14.667 25.333v-18.667c0-0.736 0.597-1.333 1.333-1.333s1.333 0.597 1.333 1.333v18.667c0 0.736-0.597 1.333-1.333 1.333s-1.333-0.597-1.333-1.333z"></path>
<path d="M25.333 14.667c0.736 0 1.333 0.597 1.333 1.333s-0.597 1.333-1.333 1.333h-18.667c-0.736 0-1.333-0.597-1.333-1.333s0.597-1.333 1.333-1.333h18.667z"></path>
</symbol>
<symbol id="icon-upload-cloud" viewBox="0 0 32 32">
<path d="M15.364 15.035c0.448-0.296 1.058-0.247 1.453 0.148l5.333 5.333c0.451 0.451 0.451 1.184 0 1.635s-1.184 0.451-1.635 0l-4.516-4.516-4.516 4.516c-0.451 0.451-1.184 0.451-1.635 0s-0.451-1.184 0-1.635l5.333-5.333 0.182-0.148z"></path>
<path d="M14.844 28v-12c0-0.638 0.518-1.156 1.156-1.156s1.156 0.518 1.156 1.156v12c0 0.638-0.518 1.156-1.156 1.156s-1.156-0.518-1.156-1.156z"></path>
<path d="M24.002 10.845c1.738 0.001 3.425 0.581 4.797 1.648s2.349 2.561 2.778 4.245c0.428 1.684 0.285 3.463-0.41 5.056s-1.901 2.909-3.427 3.741c-0.56 0.305-1.262 0.099-1.568-0.462s-0.099-1.262 0.462-1.568c1.075-0.586 1.924-1.513 2.413-2.635s0.592-2.376 0.29-3.562c-0.302-1.186-0.991-2.238-1.956-2.99s-2.156-1.161-3.38-1.161l0.002-2.311zM11.557 2.856c1.786-0.066 3.564 0.275 5.2 0.995s3.086 1.802 4.243 3.163c0.962 1.131 1.697 2.432 2.175 3.832h0.826l-0.002 1.155v1.156h-1.681c-0.46-0-0.87-0.273-1.054-0.682l-0.064-0.184-0.149-0.517c-0.382-1.195-0.998-2.304-1.812-3.262-0.931-1.095-2.099-1.966-3.415-2.545s-2.746-0.853-4.182-0.8c-1.436 0.053-2.842 0.432-4.111 1.106s-2.371 1.629-3.219 2.79c-0.848 1.161-1.422 2.499-1.679 3.913s-0.189 2.869 0.198 4.253c0.387 1.385 1.083 2.664 2.035 3.741 0.422 0.478 0.377 1.208-0.101 1.63s-1.209 0.377-1.632-0.101c-1.183-1.339-2.047-2.928-2.528-4.649s-0.564-3.53-0.245-5.288c0.319-1.758 1.031-3.422 2.085-4.865s2.422-2.629 4-3.467c1.578-0.838 3.326-1.307 5.111-1.373z"></path>
<path d="M15.364 15.035c0.448-0.296 1.058-0.247 1.453 0.148l5.333 5.333c0.451 0.451 0.451 1.184 0 1.635s-1.184 0.451-1.635 0l-4.516-4.516-4.516 4.516c-0.451 0.451-1.184 0.451-1.635 0s-0.451-1.184 0-1.635l5.333-5.333 0.182-0.148z"></path>
</symbol>
<symbol id="icon-check" viewBox="0 0 32 32">
<path d="M11.927 25.018c-0.291 0-0.582-0.145-0.727-0.291l-6.691-6.691c-0.436-0.436-0.436-1.164 0-1.6s1.164-0.436 1.6 0l5.964 5.964 13.964-13.964c0.436-0.436 1.164-0.436 1.6 0s0.436 1.164 0 1.6l-14.836 14.691c-0.291 0.291-0.582 0.291-0.873 0.291z"></path>
</symbol>
<symbol id="icon-cross" viewBox="0 0 32 32">
<path d="M18.489 16l8.178-8c0.711-0.711 0.711-1.778 0-2.489s-1.778-0.711-2.489 0l-8.178 8-8-8.178c-0.711-0.533-1.956-0.533-2.667 0s-0.711 1.778 0 2.489l8.178 8.178-8.178 8c-0.711 0.711-0.711 1.778 0 2.489 0.356 0.356 0.889 0.533 1.244 0.533s0.889-0.178 1.244-0.533l8.178-8 8 8c0.356 0.356 0.889 0.533 1.244 0.533s0.889-0.178 1.244-0.533c0.711-0.711 0.711-1.778 0-2.489l-8-8z"></path>
</symbol>
<symbol id="icon-arrows" viewBox="0 0 41 32">
<path d="M27.2 16.947c0.125-0.124 0.224-0.271 0.292-0.434s0.103-0.337 0.103-0.513-0.035-0.35-0.103-0.513c-0.068-0.163-0.167-0.31-0.292-0.434l-6.12-6.107c-0.125-0.124-0.224-0.271-0.292-0.434s-0.103-0.337-0.103-0.513 0.035-0.35 0.103-0.513c0.068-0.162 0.167-0.31 0.292-0.434 0.25-0.248 0.588-0.388 0.94-0.388s0.69 0.139 0.94 0.388l6.12 6.12c0.749 0.75 1.17 1.767 1.17 2.827s-0.421 2.077-1.17 2.827l-6.12 6.12c-0.248 0.246-0.583 0.385-0.933 0.387-0.175 0.001-0.349-0.033-0.512-0.099s-0.31-0.164-0.435-0.288c-0.125-0.124-0.224-0.271-0.292-0.434s-0.103-0.337-0.103-0.513 0.035-0.35 0.103-0.513c0.068-0.163 0.167-0.31 0.292-0.434l6.12-6.107z"></path>
<path d="M17.867 16.947c0.125-0.124 0.224-0.271 0.292-0.434s0.103-0.337 0.103-0.513-0.035-0.35-0.103-0.513c-0.068-0.163-0.167-0.31-0.292-0.434l-6.12-6.107c-0.125-0.124-0.224-0.271-0.292-0.434s-0.103-0.337-0.103-0.513c0-0.176 0.035-0.35 0.103-0.513s0.167-0.31 0.292-0.434c0.25-0.248 0.588-0.388 0.94-0.388s0.69 0.139 0.94 0.388l6.12 6.12c0.749 0.75 1.17 1.767 1.17 2.827s-0.421 2.077-1.17 2.827l-6.12 6.12c-0.248 0.246-0.584 0.385-0.933 0.387-0.175 0.001-0.349-0.033-0.512-0.099s-0.31-0.164-0.435-0.288c-0.125-0.124-0.224-0.271-0.292-0.434s-0.103-0.337-0.103-0.513 0.035-0.35 0.103-0.513c0.068-0.163 0.167-0.31 0.292-0.434l6.12-6.107z"></path>
</symbol>
<symbol id="icon-arrow" viewBox="0 0 32 32">
<path d="M17.867 16.947c0.125-0.124 0.224-0.271 0.292-0.434s0.103-0.337 0.103-0.513-0.035-0.35-0.103-0.513c-0.068-0.163-0.167-0.31-0.292-0.434l-6.12-6.107c-0.125-0.124-0.224-0.271-0.292-0.434s-0.103-0.337-0.103-0.513c0-0.176 0.035-0.35 0.103-0.513s0.167-0.31 0.292-0.434c0.25-0.248 0.588-0.388 0.94-0.388s0.69 0.139 0.94 0.388l6.12 6.12c0.749 0.75 1.17 1.767 1.17 2.827s-0.421 2.077-1.17 2.827l-6.12 6.12c-0.248 0.246-0.584 0.385-0.933 0.387-0.175 0.001-0.349-0.033-0.512-0.099s-0.31-0.164-0.435-0.288c-0.125-0.124-0.224-0.271-0.292-0.434s-0.103-0.337-0.103-0.513 0.035-0.35 0.103-0.513c0.068-0.163 0.167-0.31 0.292-0.434l6.12-6.107z"></path>
</symbol>
<symbol id="icon-edit" viewBox="0 0 32 32">
<path d="M27.771 6.666c0-0.32-0.063-0.637-0.186-0.932s-0.301-0.565-0.528-0.792c-0.226-0.226-0.496-0.405-0.792-0.528s-0.612-0.186-0.932-0.186c-0.32 0-0.637 0.063-0.932 0.186s-0.565 0.301-0.792 0.528l-17.75 17.748-1.293 4.741 4.741-1.294 17.75-17.748c0.226-0.226 0.405-0.495 0.528-0.79s0.186-0.614 0.186-0.934zM30.438 6.666c0 0.67-0.132 1.334-0.389 1.953s-0.632 1.182-1.106 1.656l-18 18c-0.164 0.164-0.368 0.283-0.592 0.344l-7.333 2c-0.462 0.126-0.955-0.005-1.293-0.344s-0.47-0.832-0.344-1.294l2-7.333 0.057-0.163c0.067-0.159 0.163-0.306 0.286-0.429l18-18c0.474-0.474 1.037-0.849 1.656-1.106s1.283-0.389 1.953-0.389c0.67 0 1.334 0.132 1.953 0.389s1.182 0.632 1.656 1.106 0.849 1.037 1.106 1.656c0.257 0.619 0.389 1.283 0.389 1.953z"></path>
</symbol>
<symbol id="icon-trash" viewBox="0 0 32 32">
<path d="M28 6.667c0.736 0 1.333 0.597 1.333 1.333s-0.597 1.333-1.333 1.333h-24c-0.736 0-1.333-0.597-1.333-1.333s0.597-1.333 1.333-1.333h24z"></path>
<path d="M5.333 26.667v-18.667c0-0.736 0.597-1.333 1.333-1.333s1.333 0.597 1.333 1.333v18.667c0 0.354 0.141 0.693 0.391 0.943s0.589 0.391 0.943 0.391h13.333c0.354 0 0.693-0.141 0.943-0.391s0.391-0.589 0.391-0.943v-18.667c0-0.736 0.597-1.333 1.333-1.333s1.333 0.597 1.333 1.333v18.667c0 1.061-0.422 2.078-1.172 2.828s-1.767 1.172-2.828 1.172h-13.333c-1.061 0-2.078-0.422-2.828-1.172s-1.172-1.767-1.172-2.828zM20 8v-2.667c0-0.354-0.141-0.693-0.391-0.943s-0.589-0.391-0.943-0.391h-5.333c-0.354 0-0.693 0.141-0.943 0.391s-0.391 0.589-0.391 0.943v2.667c0 0.736-0.597 1.333-1.333 1.333s-1.333-0.597-1.333-1.333v-2.667c0-1.061 0.422-2.078 1.172-2.828s1.767-1.172 2.828-1.172h5.333c1.061 0 2.078 0.422 2.828 1.172s1.172 1.767 1.172 2.828v2.667c0 0.736-0.597 1.333-1.333 1.333s-1.333-0.597-1.333-1.333z"></path>
<path d="M12 22.667v-8c0-0.736 0.597-1.333 1.333-1.333s1.333 0.597 1.333 1.333v8c0 0.736-0.597 1.333-1.333 1.333s-1.333-0.597-1.333-1.333z"></path>
<path d="M17.333 22.667v-8c0-0.736 0.597-1.333 1.333-1.333s1.333 0.597 1.333 1.333v8c0 0.736-0.597 1.333-1.333 1.333s-1.333-0.597-1.333-1.333z"></path>
</symbol>
<symbol id="icon-heart-empty" viewBox="0 0 32 32">
<path d="M28.604 11.333c0-0.788-0.157-1.569-0.458-2.297-0.264-0.637-0.635-1.223-1.097-1.733l-0.203-0.214c-0.557-0.557-1.22-1-1.948-1.302s-1.509-0.457-2.297-0.457c-0.788 0-1.569 0.155-2.297 0.457s-1.389 0.745-1.946 1.302l-1.413 1.413c-0.521 0.521-1.365 0.52-1.885 0l-1.415-1.413c-1.126-1.125-2.651-1.759-4.243-1.759s-3.118 0.633-4.243 1.759c-1.125 1.125-1.758 2.652-1.759 4.243s0.633 3.119 1.759 4.245l10.844 10.844 11.047-11.057c0.462-0.51 0.833-1.097 1.097-1.734 0.302-0.728 0.458-1.509 0.458-2.297zM31.271 11.333c0 1.138-0.226 2.266-0.661 3.318-0.381 0.92-0.918 1.767-1.585 2.503l-0.294 0.309-11.786 11.786c-0.25 0.25-0.589 0.39-0.943 0.391s-0.693-0.141-0.943-0.391l-11.788-11.786c-1.625-1.626-2.538-3.831-2.538-6.13s0.913-4.503 2.538-6.128c1.626-1.626 3.831-2.54 6.13-2.54s4.505 0.914 6.13 2.54l0.471 0.471 0.469-0.471 0.309-0.293c0.737-0.668 1.583-1.205 2.503-1.587 1.052-0.436 2.179-0.66 3.318-0.66s2.266 0.224 3.318 0.66c1.052 0.436 2.008 1.075 2.812 1.88l0.294 0.309c0.667 0.736 1.204 1.583 1.585 2.503 0.436 1.051 0.661 2.178 0.661 3.316z"></path>
</symbol>
<symbol id="icon-sexual-reproductive" viewBox="0 0 32 32">
<path d="M11.694 10.327c-0.957-0.374-2.010-0.421-2.997-0.135s-1.851 0.89-2.459 1.718c-0.608 0.828-0.926 1.833-0.905 2.86s0.382 2.018 1.024 2.82 1.532 1.369 2.529 1.613c0.998 0.245 2.048 0.153 2.988-0.261s1.718-1.126 2.212-2.026c0.494-0.901 0.677-1.939 0.52-2.954-0.013-0.087-0.009-0.175 0.011-0.26s0.058-0.165 0.11-0.236c0.052-0.071 0.117-0.13 0.192-0.176s0.158-0.076 0.244-0.089 0.175-0.009 0.26 0.011c0.085 0.021 0.165 0.058 0.236 0.11s0.13 0.117 0.176 0.192c0.045 0.075 0.076 0.158 0.089 0.244 0.201 1.305-0.034 2.64-0.67 3.798s-1.635 2.073-2.844 2.605c-1.209 0.531-2.559 0.649-3.842 0.335s-2.426-1.044-3.252-2.074c-0.826-1.031-1.289-2.305-1.316-3.625s0.381-2.613 1.163-3.677 1.893-1.841 3.162-2.209c1.268-0.368 2.623-0.307 3.853 0.173 0.083 0.031 0.158 0.078 0.223 0.139s0.116 0.133 0.152 0.214c0.036 0.081 0.056 0.168 0.058 0.256s-0.013 0.176-0.045 0.258c-0.032 0.082-0.080 0.157-0.142 0.221s-0.135 0.114-0.216 0.149c-0.081 0.035-0.168 0.053-0.257 0.054s-0.176-0.015-0.258-0.048z"></path>
<path d="M9.331 26v-5.331c0-0.177 0.070-0.346 0.195-0.471s0.294-0.195 0.471-0.195c0.177 0 0.346 0.070 0.471 0.195s0.195 0.295 0.195 0.471v5.331c0 0.177-0.070 0.346-0.195 0.471s-0.294 0.195-0.471 0.195c-0.177 0-0.346-0.070-0.471-0.195s-0.195-0.294-0.195-0.471z"></path>
<path d="M7.332 22.668c0-0.177 0.070-0.346 0.195-0.471s0.294-0.195 0.471-0.195h3.998c0.177 0 0.346 0.070 0.471 0.195s0.195 0.295 0.195 0.471c0 0.177-0.070 0.346-0.195 0.471s-0.294 0.195-0.471 0.195h-3.998c-0.177 0-0.346-0.070-0.471-0.195s-0.195-0.294-0.195-0.471zM19.262 10.182c-0.739-0.209-1.517-0.232-2.267-0.067s-1.447 0.511-2.030 1.010-1.035 1.133-1.315 1.848c-0.28 0.715-0.379 1.487-0.288 2.249 0.011 0.087 0.004 0.176-0.019 0.26s-0.063 0.164-0.118 0.233c-0.054 0.069-0.121 0.127-0.198 0.17s-0.161 0.071-0.248 0.081c-0.087 0.010-0.176 0.003-0.26-0.021s-0.163-0.064-0.232-0.119-0.126-0.122-0.169-0.199c-0.043-0.077-0.070-0.161-0.080-0.249-0.156-1.311 0.126-2.638 0.801-3.773s1.706-2.016 2.933-2.505c1.227-0.489 2.58-0.56 3.851-0.201s2.388 1.127 3.178 2.185c0.79 1.059 1.208 2.348 1.19 3.669s-0.471 2.598-1.29 3.635-1.956 1.774-3.236 2.098c-1.28 0.324-2.632 0.216-3.845-0.307-0.080-0.035-0.153-0.085-0.214-0.147s-0.109-0.137-0.141-0.218c-0.065-0.164-0.063-0.348 0.007-0.51s0.201-0.29 0.366-0.356c0.164-0.065 0.348-0.063 0.51 0.007 0.586 0.253 1.218 0.382 1.857 0.381s1.27-0.134 1.855-0.389c0.585-0.255 1.112-0.628 1.547-1.095s0.77-1.018 0.983-1.62c0.214-0.602 0.301-1.241 0.258-1.878s-0.217-1.258-0.51-1.825-0.7-1.068-1.194-1.472c-0.495-0.404-1.067-0.701-1.681-0.875z"></path>
<path d="M21.855 11.477c-0.125-0.125-0.195-0.294-0.195-0.471s0.070-0.346 0.195-0.471l4.998-4.998c0.061-0.064 0.135-0.114 0.216-0.149s0.169-0.053 0.257-0.054c0.088-0.001 0.176 0.016 0.258 0.050s0.156 0.083 0.219 0.146c0.063 0.063 0.112 0.137 0.146 0.219s0.050 0.17 0.050 0.258c-0.001 0.088-0.019 0.176-0.054 0.257s-0.086 0.155-0.149 0.216l-4.998 4.998c-0.125 0.125-0.295 0.195-0.471 0.195s-0.346-0.070-0.471-0.195z"></path>
<path d="M27.273 10.007c-0.088-0.001-0.174-0.020-0.254-0.054s-0.153-0.085-0.214-0.147c-0.061-0.063-0.109-0.137-0.142-0.218s-0.049-0.168-0.047-0.256l0.033-2.648-2.648 0.033c-0.177 0.002-0.347-0.066-0.474-0.189s-0.199-0.292-0.201-0.469 0.066-0.347 0.189-0.474c0.123-0.127 0.292-0.199 0.469-0.201l4.016-0.051-0.051 4.016c-0.001 0.088-0.019 0.174-0.054 0.254s-0.085 0.153-0.147 0.214c-0.063 0.061-0.137 0.109-0.218 0.142s-0.168 0.049-0.256 0.047z"></path>
</symbol>
<symbol id="icon-calendar" viewBox="0 0 32 32">
<path d="M26.559 8.001c0-0.677-0.549-1.227-1.227-1.227h-18.666c-0.677 0-1.227 0.549-1.227 1.227v18.666c0 0.678 0.549 1.227 1.227 1.227h18.666c0.677 0 1.227-0.549 1.227-1.227v-18.666zM29.441 26.666c0 2.268-1.84 4.108-4.108 4.108h-18.666c-2.268 0-4.108-1.84-4.108-4.108v-18.666c0-2.268 1.84-4.108 4.108-4.108h18.666c2.268 0 4.108 1.84 4.108 4.108v18.666z"></path>
<path d="M19.892 8v-5.333c0-0.795 0.645-1.441 1.441-1.441s1.441 0.645 1.441 1.441v5.333c0 0.795-0.645 1.441-1.441 1.441s-1.441-0.645-1.441-1.441z"></path>
<path d="M9.227 8v-5.333c0-0.795 0.645-1.441 1.441-1.441s1.441 0.645 1.441 1.441v5.333c0 0.795-0.645 1.441-1.441 1.441s-1.441-0.645-1.441-1.441z"></path>
<path d="M28 11.893c0.795 0 1.441 0.645 1.441 1.441s-0.645 1.441-1.441 1.441h-24c-0.795 0-1.441-0.645-1.441-1.441s0.645-1.441 1.441-1.441h24z"></path>
</symbol>
<symbol id="icon-star" viewBox="0 0 32 32">
<path stroke-linejoin="miter" stroke-linecap="butt" stroke-miterlimit="4" stroke-width="2.4" d="M19.6 9.395c0.318 0.603 0.898 1.024 1.57 1.141l7.6 1.313-5.375 5.535c-0.416 0.428-0.637 1.003-0.621 1.592l0.022 0.254 1.098 7.635-6.922-3.402-0.234-0.1c-0.476-0.169-0.996-0.169-1.473 0l-0.234 0.1-6.924 3.402 1.1-7.635c0.085-0.591-0.074-1.187-0.434-1.654l-0.166-0.191-5.377-5.535 7.602-1.313c0.588-0.102 1.106-0.437 1.439-0.924l0.131-0.217 3.6-6.822 3.6 6.822z"></path>
</symbol>
<symbol id="icon-user" viewBox="0 0 32 32">
<path stroke-linejoin="round" stroke-linecap="round" stroke-miterlimit="4" stroke-width="2.6667" d="M16 20c-4.227 0-7.986 2.041-10.379 5.208-0.515 0.682-0.773 1.022-0.764 1.483 0.006 0.356 0.23 0.805 0.51 1.025 0.362 0.284 0.865 0.284 1.869 0.284h17.527c1.005 0 1.507 0 1.869-0.284 0.28-0.22 0.503-0.669 0.51-1.025 0.008-0.461-0.249-0.801-0.764-1.483-2.393-3.167-6.152-5.208-10.379-5.208z"></path>
<path stroke-linejoin="round" stroke-linecap="round" stroke-miterlimit="4" stroke-width="2.6667" d="M16 16c3.314 0 6-2.686 6-6s-2.686-6-6-6c-3.314 0-6 2.686-6 6s2.686 6 6 6z"></path>
</symbol>
<symbol id="icon-chevron" viewBox="0 0 32 32">
<path d="M22.743 10.743c0.694-0.694 1.82-0.694 2.514 0s0.694 1.82 0 2.514l-8 8c-0.694 0.694-1.82 0.694-2.514 0l-8-8c-0.694-0.694-0.694-1.82 0-2.514s1.82-0.694 2.514 0l6.743 6.743 6.743-6.743z"></path>
</symbol>
<symbol id="icon-eye-off" viewBox="0 0 32 32">
<path d="M7.199 6.924c0.638-0.488 1.552-0.366 2.040 0.273s0.364 1.552-0.274 2.040c-2.415 1.844-4.441 4.143-5.965 6.766 0.14 0.24 0.319 0.537 0.537 0.875 0.612 0.947 1.518 2.208 2.693 3.462 2.375 2.533 5.678 4.866 9.756 4.872 2.552-0.044 5.024-0.9 7.054-2.448 0.639-0.487 1.551-0.364 2.038 0.274s0.364 1.551-0.274 2.038c-2.526 1.926-5.602 2.993-8.778 3.045l-0.024-1.5v0.045l0.024 1.455c-0.008 0-0.016 0-0.024 0-5.247-0-9.271-2.997-11.893-5.794-1.324-1.413-2.336-2.82-3.016-3.872-0.341-0.527-0.6-0.97-0.777-1.284-0.088-0.157-0.156-0.282-0.203-0.371-0.023-0.044-0.042-0.080-0.055-0.105-0.006-0.012-0.012-0.022-0.016-0.030-0.002-0.004-0.003-0.008-0.004-0.010l-0.001-0.003-0.001-0.001c0-0.001 0.019-0.011 1.301-0.652l-1.301 0.651c-0.211-0.423-0.203-0.922 0.020-1.338l0.337-0.608c1.726-3.020 4.040-5.666 6.808-7.78zM16.004 3.88c5.246 0.001 9.27 2.995 11.892 5.791 1.324 1.413 2.336 2.82 3.016 3.872 0.341 0.528 0.6 0.971 0.777 1.286 0.088 0.157 0.156 0.282 0.203 0.371 0.023 0.044 0.041 0.080 0.054 0.105 0.006 0.012 0.012 0.022 0.016 0.030 0.002 0.004 0.004 0.007 0.006 0.010l0.001 0.003v0.001c-0.006 0.003-0.088 0.045-1.3 0.65h-0.001l1.284 0.686c-0.857 1.603-1.879 3.113-3.050 4.504-0.517 0.615-1.435 0.693-2.050 0.176s-0.693-1.435-0.176-2.050c0.872-1.036 1.649-2.147 2.327-3.318-0.14-0.24-0.317-0.537-0.536-0.875-0.612-0.947-1.518-2.208-2.693-3.462-2.378-2.536-5.687-4.874-9.773-4.874h-0.003l-0.622 0.017c-0.62 0.035-1.237 0.122-1.842 0.264-0.782 0.183-1.565-0.302-1.749-1.084s0.303-1.565 1.085-1.749c1.026-0.24 2.077-0.359 3.131-0.357h0.001l0.003-0.001-0.001 0.001zM12.183 12.109c0.588-0.548 1.509-0.515 2.057 0.072s0.514 1.509-0.074 2.057c-0.25 0.233-0.45 0.513-0.589 0.825s-0.214 0.65-0.22 0.991c-0.006 0.342 0.058 0.682 0.186 0.999s0.318 0.605 0.56 0.847c0.242 0.242 0.53 0.432 0.847 0.56s0.657 0.191 0.999 0.185c0.342-0.006 0.678-0.081 0.99-0.22s0.594-0.339 0.827-0.589c0.548-0.587 1.468-0.62 2.055-0.072s0.62 1.468 0.072 2.055c-0.499 0.536-1.101 0.966-1.77 1.264s-1.391 0.459-2.123 0.472c-0.732 0.013-1.46-0.122-2.139-0.396s-1.296-0.682-1.814-1.2c-0.518-0.518-0.926-1.135-1.2-1.814s-0.409-1.407-0.396-2.139c0.013-0.732 0.174-1.455 0.472-2.124s0.727-1.272 1.263-1.771zM31.97 15.349c0.211 0.422 0.204 0.921-0.018 1.337l-1.283-0.686 1.301-0.65z"></path>
<path d="M0.307 0.305c0.568-0.568 1.489-0.568 2.057 0l29.334 29.334c0.568 0.568 0.568 1.489 0 2.057s-1.489 0.568-2.057 0l-29.334-29.334c-0.568-0.568-0.568-1.489 0-2.057z"></path>
</symbol>
<symbol id="icon-eye" viewBox="0 0 32 32">
<path d="M15.999 3.879c5.248 0 9.273 2.996 11.895 5.793 1.324 1.413 2.336 2.82 3.016 3.872 0.341 0.528 0.6 0.971 0.777 1.286 0.088 0.157 0.156 0.282 0.203 0.371 0.023 0.044 0.041 0.080 0.054 0.105 0.006 0.012 0.012 0.022 0.016 0.030 0.002 0.004 0.005 0.006 0.006 0.009l0.001 0.004v0.001c-0.006 0.003-0.089 0.045-1.3 0.651l1.3 0.652v0.001l-0.001 0.003c-0.001 0.002-0.004 0.006-0.006 0.010-0.004 0.008-0.009 0.017-0.016 0.030-0.013 0.025-0.031 0.061-0.054 0.105-0.047 0.088-0.115 0.214-0.203 0.371-0.177 0.314-0.436 0.757-0.777 1.284-0.68 1.052-1.691 2.459-3.016 3.872-2.622 2.797-6.647 5.794-11.895 5.794s-9.271-2.997-11.894-5.794c-1.324-1.413-2.336-2.82-3.016-3.872-0.341-0.528-0.6-0.97-0.777-1.284-0.088-0.157-0.156-0.282-0.203-0.371-0.023-0.044-0.042-0.080-0.055-0.105-0.006-0.012-0.012-0.022-0.016-0.030-0.002-0.004-0.003-0.007-0.004-0.010l-0.001-0.003-0.001-0.001c-0-0.001 0.017-0.010 1.301-0.652l-1.301 0.65c-0.205-0.409-0.205-0.892 0-1.301l0.001-0.001 0.001-0.004c0.001-0.002 0.003-0.005 0.004-0.009 0.004-0.007 0.009-0.017 0.016-0.030 0.013-0.025 0.032-0.061 0.055-0.105 0.047-0.088 0.115-0.214 0.203-0.371 0.177-0.314 0.436-0.758 0.777-1.286 0.68-1.053 1.691-2.46 3.016-3.872 2.622-2.797 6.646-5.792 11.894-5.793zM15.999 6.788c-4.085 0-7.394 2.337-9.771 4.874-1.176 1.254-2.081 2.514-2.693 3.462-0.219 0.339-0.398 0.636-0.538 0.877 0.14 0.24 0.319 0.538 0.538 0.878 0.612 0.947 1.518 2.208 2.693 3.462 2.378 2.536 5.686 4.873 9.771 4.874s7.395-2.337 9.773-4.874c1.176-1.254 2.081-2.514 2.693-3.462 0.219-0.339 0.397-0.638 0.537-0.878-0.14-0.24-0.318-0.538-0.537-0.877-0.612-0.947-1.518-2.208-2.693-3.462-2.378-2.536-5.687-4.874-9.773-4.874zM31.967 15.349c0.205 0.409 0.204 0.892 0 1.301l-1.301-0.65 1.301-0.651z"></path>
<path d="M18.545 16c0-1.406-1.14-2.545-2.545-2.545s-2.545 1.14-2.545 2.545c0 1.406 1.14 2.545 2.545 2.545s2.545-1.14 2.545-2.545zM21.455 16c0 3.012-2.442 5.455-5.455 5.455s-5.455-2.442-5.455-5.455c0-3.012 2.442-5.455 5.455-5.455s5.455 2.442 5.455 5.455z"></path>
</symbol>
<symbol id="icon-search" viewBox="0 0 32 32">
<path d="M23.556 14.667c0-4.909-3.98-8.889-8.889-8.889s-8.889 3.98-8.889 8.889c0 4.909 3.98 8.889 8.889 8.889s8.889-3.98 8.889-8.889zM27.111 14.667c0 6.873-5.572 12.444-12.444 12.444s-12.444-5.572-12.444-12.444c0-6.873 5.572-12.444 12.444-12.444s12.444 5.572 12.444 12.444z"></path>
<path d="M20.944 20.943c0.694-0.694 1.82-0.694 2.514 0l5.8 5.8c0.694 0.694 0.694 1.82 0 2.514s-1.82 0.694-2.514 0l-5.8-5.8c-0.694-0.694-0.694-1.82 0-2.514z"></path>
</symbol>
<symbol id="icon-heart" viewBox="0 0 32 32">
<path d="M15.991 7.561c-2.559-3.022-6.827-3.834-10.033-1.068s-3.658 7.393-1.14 10.665c1.613 2.096 5.743 5.983 8.505 8.506 0.918 0.839 1.376 1.258 1.926 1.426 0.473 0.145 1.012 0.145 1.485 0 0.55-0.168 1.008-0.588 1.926-1.426 2.761-2.524 6.892-6.41 8.505-8.506 2.518-3.272 2.122-7.928-1.14-10.665s-7.474-1.954-10.033 1.068z"></path>
</symbol>
</defs>
</svg>
